<svg xmlns="http://www.w3.org/2000/svg" xmlns:svg="http://www.w3.org/2000/svg" xmlns:xlink="http://www.w3.org/1999/xlink" version="1.0" height="1111pt" width="1099.1909830056252pt" viewBox="255.80901699437493 47 1107.1909830056252 1117" ><defs><style type="text/css">
            @font-face {
                font-family: 'lt_regular';
                src: url('https://app.creately.com/diagram/assets/fonts/lato/lt-regular-webfont.woff2') format('woff2'),
                    url('https://app.creately.com/diagram/assets/fonts/lato/lt-regular-webfont.woff') format('woff');
                font-weight: normal;
                font-style: normal;
            }
            @font-face {
                font-family: 'noto_regular';
                src: url('https://app.creately.com/diagram/assets/fonts/noto/noto-regular.woff') format('woff'),
                     url('https://app.creately.com/diagram/assets/fonts/noto/noto-regular.woff2') format('woff2');
                font-weight: normal;
                font-style: normal;
            }
        p {
            margin: 0;
        }
        </style></defs><defs><style>
            span{ display: inline-block; }
        </style></defs><g id="5EGR5bebGZf"><g transform="translate(600 50)"><rect x="0" y="0" width="150" height="100" rx="2" ry="2" fill="rgb(65,90,95)" stroke="#0e1415" stroke-width="2" stroke-linecap="round" stroke-linejoin="round" stroke-dasharray="0 0"/><path d="M 0,30 L 150,30" fill="rgb(65,90,95)" stroke="#0e1415" stroke-width="2" stroke-linecap="round" stroke-linejoin="round" stroke-dasharray="0 0"/></g><g transform="translate(657, 55) rotate(0, 18, 0)" width="36" height="20"><text text-decoration="none" x="0" fill="#ffffff" font-size="11pt" font-family="lt_regular"  y="16">Users</text><text text-decoration="none" x="36" fill="#4b4b4b" font-size="10pt" font-family="noto_regular"  y="16"></text></g><g transform="translate(610, 85) rotate(0, 0, 0)" width="84" height="60"><text text-decoration="none" x="0" fill="#ffffff" font-size="11pt" font-family="lt_regular"  y="16">Name:&#160;</text><text text-decoration="none" x="46" fill="#ffffff" font-size="11pt" font-family="lt_regular"  y="16">String</text><text text-decoration="none" x="84" fill="#ffffff" font-size="11pt" font-family="lt_regular"  y="16"></text><text text-decoration="none" x="0" fill="#ffffff" font-size="11pt" font-family="lt_regular"  y="36">Nos&#160;</text><text text-decoration="none" x="30" fill="#ffffff" font-size="11pt" font-family="lt_regular"  y="36">:&#160;</text><text text-decoration="none" x="38" fill="#ffffff" font-size="11pt" font-family="lt_regular"  y="36">Int</text><text text-decoration="none" x="55" fill="#ffffff" font-size="11pt" font-family="lt_regular"  y="36"></text><text text-decoration="none" x="0" fill="#ffffff" font-size="11pt" font-family="lt_regular"  y="56">ID&#160;</text><text text-decoration="none" x="19" fill="#ffffff" font-size="11pt" font-family="lt_regular"  y="56">:&#160;</text><text text-decoration="none" x="27" fill="#ffffff" font-size="11pt" font-family="lt_regular"  y="56">Int</text><text text-decoration="none" x="44" fill="#4b4b4b" font-size="10pt" font-family="noto_regular"  y="56"></text></g></g><g id="suB9QOghPks"><g transform="translate(350 200)"><rect x="0" y="0" width="150" height="200" rx="2" ry="2" fill="rgb(54,150,147)" stroke="#143837" stroke-width="2" stroke-linecap="round" stroke-linejoin="round" stroke-dasharray="0 0"/><path d="M 0,30 L 150,30 M 0,140 L 150,140" fill="rgb(54,150,147)" stroke="#143837" stroke-width="2" stroke-linecap="round" stroke-linejoin="round" stroke-dasharray="0 0"/></g><g transform="translate(360, 205) rotate(0, 0, 0)" width="63" height="20"><text text-decoration="none" x="0" fill="#ffffff" font-size="11pt" font-family="lt_regular"  y="16">Customer</text><text text-decoration="none" x="63" fill="#4b4b4b" font-size="10pt" font-family="noto_regular"  y="16"></text></g><g transform="translate(360, 235) rotate(0, 0, 0)" width="135" height="100"><text text-decoration="none" x="0" fill="#ffffff" font-size="11pt" font-family="lt_regular"  y="16">Name:&#160;</text><text text-decoration="none" x="46" fill="#ffffff" font-size="11pt" font-family="lt_regular"  y="16">String</text><text text-decoration="none" x="84" fill="#ffffff" font-size="11pt" font-family="lt_regular"  y="16"></text><text text-decoration="none" x="0" fill="#ffffff" font-size="11pt" font-family="lt_regular"  y="36">No:&#160;</text><text text-decoration="none" x="28" fill="#ffffff" font-size="11pt" font-family="lt_regular"  y="36">Int</text><text text-decoration="none" x="45" fill="#ffffff" font-size="11pt" font-family="lt_regular"  y="36"></text><text text-decoration="none" x="0" fill="#ffffff" font-size="11pt" font-family="lt_regular"  y="56">ID&#160;</text><text text-decoration="none" x="19" fill="#ffffff" font-size="11pt" font-family="lt_regular"  y="56">:&#160;</text><text text-decoration="none" x="27" fill="#ffffff" font-size="11pt" font-family="lt_regular"  y="56">Int</text><text text-decoration="none" x="44" fill="#ffffff" font-size="11pt" font-family="lt_regular"  y="56"></text><text text-decoration="none" x="0" fill="#ffffff" font-size="11pt" font-family="lt_regular"  y="76">Object_name&#160;</text><text text-decoration="none" x="90" fill="#ffffff" font-size="11pt" font-family="lt_regular"  y="76">:&#160;</text><text text-decoration="none" x="0" fill="#ffffff" font-size="11pt" font-family="lt_regular"  y="96">String</text><text text-decoration="none" x="38" fill="#ffffff" font-size="11pt" font-family="lt_regular"  y="96"></text><text text-decoration="none" x="0" fill="#ffffff" font-size="11pt" font-family="lt_regular"  y="116">Bidding_amount:&#160;</text><text text-decoration="none" x="114" fill="#ffffff" font-size="11pt" font-family="lt_regular"  y="116">Int</text><text text-decoration="none" x="131" fill="#4b4b4b" font-size="10pt" font-family="noto_regular"  y="116"></text></g><g transform="translate(360, 345) rotate(0, 0, 0)" width="51" height="40"><text text-decoration="none" x="0" fill="#ffffff" font-size="11pt" font-family="lt_regular"  y="16">Search()</text><text text-decoration="none" x="51" fill="#ffffff" font-size="11pt" font-family="lt_regular"  y="16"></text><text text-decoration="none" x="0" fill="#ffffff" font-size="11pt" font-family="lt_regular"  y="36">Bid()</text><text text-decoration="none" x="34" fill="#4b4b4b" font-size="10pt" font-family="noto_regular"  y="36"></text></g></g><g id="xDHkF2AfPQY"><g transform="translate(850 200)"><rect x="0" y="0" width="150" height="200" rx="2" ry="2" fill="rgb(54,150,147)" stroke="#143837" stroke-width="2" stroke-linecap="round" stroke-linejoin="round" stroke-dasharray="0 0"/><path d="M 0,30 L 150,30" fill="rgb(54,150,147)" stroke="#143837" stroke-width="2" stroke-linecap="round" stroke-linejoin="round" stroke-dasharray="0 0"/></g><g transform="translate(906, 205) rotate(0, 19, 0)" width="38" height="20"><text text-decoration="none" x="0" fill="#ffffff" font-size="11pt" font-family="lt_regular"  y="16">Client</text><text text-decoration="none" x="39" fill="#4b4b4b" font-size="10pt" font-family="noto_regular"  y="16"></text></g><g transform="translate(860, 235) rotate(0, 0, 0)" width="135" height="158"><text text-decoration="none" x="0" fill="#ffffff" font-size="11pt" font-family="lt_regular"  y="16">Name&#160;</text><text text-decoration="none" x="42" fill="#ffffff" font-size="11pt" font-family="lt_regular"  y="16">:&#160;</text><text text-decoration="none" x="50" fill="#ffffff" font-size="11pt" font-family="lt_regular"  y="16">String</text><text text-decoration="none" x="88" fill="#ffffff" font-size="11pt" font-family="lt_regular"  y="16"></text><text text-decoration="none" x="0" fill="#ffffff" font-size="11pt" font-family="lt_regular"  y="36">Nos:&#160;</text><text text-decoration="none" x="34" fill="#ffffff" font-size="11pt" font-family="lt_regular"  y="36">Int</text><text text-decoration="none" x="51" fill="#ffffff" font-size="11pt" font-family="lt_regular"  y="36"></text><text text-decoration="none" x="0" fill="#ffffff" font-size="11pt" font-family="lt_regular"  y="56">ID&#160;</text><text text-decoration="none" x="19" fill="#ffffff" font-size="11pt" font-family="lt_regular"  y="56">:&#160;</text><text text-decoration="none" x="27" fill="#ffffff" font-size="11pt" font-family="lt_regular"  y="56">Int</text><text text-decoration="none" x="44" fill="#ffffff" font-size="11pt" font-family="lt_regular"  y="56"></text><text text-decoration="none" x="0" fill="#ffffff" font-size="11pt" font-family="lt_regular"  y="76">Object_name&#160;</text><text text-decoration="none" x="90" fill="#ffffff" font-size="11pt" font-family="lt_regular"  y="76">:&#160;</text><text text-decoration="none" x="0" fill="#ffffff" font-size="11pt" font-family="lt_regular"  y="96">String</text><text text-decoration="none" x="38" fill="#ffffff" font-size="11pt" font-family="lt_regular"  y="96"></text><text text-decoration="none" x="0" fill="#ffffff" font-size="11pt" font-family="lt_regular"  y="116">Time_limit:&#160;</text><text text-decoration="none" x="77" fill="#ffffff" font-size="11pt" font-family="lt_regular"  y="116">Int</text><text text-decoration="none" x="94" fill="#ffffff" font-size="11pt" font-family="lt_regular"  y="116"></text><text text-decoration="none" x="0" fill="#ffffff" font-size="11pt" font-family="lt_regular"  y="136">host_auction()</text><text text-decoration="none" x="91" fill="#ffffff" font-size="11pt" font-family="lt_regular"  y="136"></text><text text-decoration="none" x="0" fill="#ffffff" font-size="11pt" font-family="lt_regular"  y="156">Track_of_payment()</text><text text-decoration="none" x="128" fill="#ffffff" font-size="11pt" font-family="lt_regular"  y="156"></text><text text-decoration="none" x="67.5" fill="#4b4b4b" font-size="10pt" font-family="noto_regular"  y="175"></text></g></g><g id="BctqDx2YBPL"><mask id="b967e" x="411" y="86" width="203" height="128" maskUnits="userSpaceOnUse"><rect x="411" y="86" width="203" height="128" fill="white" />undefined</mask><g mask="url(#b967e)"><path d="M 600,100 L 435,100 Q 425,100 425,110 L 425,200" fill="none" stroke="#9A9A9A" stroke-width="2" stroke-linecap="round" stroke-linejoin="round" stroke-dasharray="3 3"/><path d="M 425,200 L 431.49717514124296,193.04347826086956 M 425,200 L 418.50282485875704,193.04347826086956 Z" fill="rgb(255,255,255)" stroke="#9A9A9A" stroke-width="2" stroke-linecap="round" stroke-linejoin="round"/></g>undefined</g><g id="Oo91RcIfQ6v"><mask id="7bb4b" x="736" y="111" width="203" height="103" maskUnits="userSpaceOnUse"><rect x="736" y="111" width="203" height="103" fill="white" />undefined</mask><g mask="url(#7bb4b)"><path d="M 750,125 L 915,125 Q 925,125 925,135 L 925,200" fill="none" stroke="#9A9A9A" stroke-width="2" stroke-linecap="round" stroke-linejoin="round" stroke-dasharray="3 3"/><path d="M 925,200 L 931.4971751412429,193.04347826086956 M 925,200 L 918.5028248587571,193.04347826086956 Z" fill="rgb(255,255,255)" stroke="#9A9A9A" stroke-width="2" stroke-linecap="round" stroke-linejoin="round"/></g>undefined</g><g id="Pzek3EICqoB"><g transform="translate(469.99999999999994 530)"><rect x="0" y="0" width="410" height="220" rx="2" ry="2" fill="rgb(54,150,147)" stroke="#143837" stroke-width="2" stroke-linecap="round" stroke-linejoin="round" stroke-dasharray="0 0"/><path d="M 0,30 L 410,30" fill="rgb(54,150,147)" stroke="#143837" stroke-width="2" stroke-linecap="round" stroke-linejoin="round" stroke-dasharray="0 0"/></g><g transform="translate(479.99999999999994, 535) rotate(0, 0, 0)" width="97" height="20"><text text-decoration="none" x="0" fill="#ffffff" font-size="11pt" font-family="lt_regular"  y="16">Object/auction</text><text text-decoration="none" x="99" fill="#4b4b4b" font-size="10pt" font-family="noto_regular"  y="16"></text></g><g transform="translate(479.99999999999994, 565) rotate(0, 0, 0)" width="398" height="180"><text text-decoration="none" x="0" fill="#ffffff" font-size="11pt" font-family="lt_regular"  y="16">Name:&#160;</text><text text-decoration="none" x="46" fill="#ffffff" font-size="11pt" font-family="lt_regular"  y="16">String</text><text text-decoration="none" x="84" fill="#ffffff" font-size="11pt" font-family="lt_regular"  y="16"></text><text text-decoration="none" x="0" fill="#ffffff" font-size="11pt" font-family="lt_regular"  y="36">Descripiton&#160;</text><text text-decoration="none" x="79" fill="#ffffff" font-size="11pt" font-family="lt_regular"  y="36">:&#160;</text><text text-decoration="none" x="87" fill="#ffffff" font-size="11pt" font-family="lt_regular"  y="36">String</text><text text-decoration="none" x="125" fill="#ffffff" font-size="11pt" font-family="lt_regular"  y="36"></text><text text-decoration="none" x="0" fill="#ffffff" font-size="11pt" font-family="lt_regular"  y="56">Start_bid:&#160;</text><text text-decoration="none" x="65" fill="#ffffff" font-size="11pt" font-family="lt_regular"  y="56">Int</text><text text-decoration="none" x="82" fill="#ffffff" font-size="11pt" font-family="lt_regular"  y="56"></text><text text-decoration="none" x="0" fill="#ffffff" font-size="11pt" font-family="lt_regular"  y="76">Last_bid:&#160;</text><text text-decoration="none" x="61" fill="#ffffff" font-size="11pt" font-family="lt_regular"  y="76">Int</text><text text-decoration="none" x="78" fill="#ffffff" font-size="11pt" font-family="lt_regular"  y="76"></text><text text-decoration="none" x="0" fill="#ffffff" font-size="11pt" font-family="lt_regular"  y="96">Category:&#160;</text><text text-decoration="none" x="68" fill="#ffffff" font-size="11pt" font-family="lt_regular"  y="96">String</text><text text-decoration="none" x="106" fill="#ffffff" font-size="11pt" font-family="lt_regular"  y="96"></text><text text-decoration="none" x="0" fill="#ffffff" font-size="11pt" font-family="lt_regular"  y="116">Bid&#160;</text><text text-decoration="none" x="26" fill="#ffffff" font-size="11pt" font-family="lt_regular"  y="116">history</text><text text-decoration="none" x="71" fill="#ffffff" font-size="11pt" font-family="lt_regular"  y="116"></text><text text-decoration="none" x="0" fill="#ffffff" font-size="11pt" font-family="lt_regular"  y="136">//&#160;</text><text text-decoration="none" x="18" fill="#ffffff" font-size="11pt" font-family="lt_regular"  y="136">Line&#160;</text><text text-decoration="none" x="50" fill="#ffffff" font-size="11pt" font-family="lt_regular"  y="136">break&#160;</text><text text-decoration="none" x="90" fill="#ffffff" font-size="11pt" font-family="lt_regular"  y="136">(\n)&#160;</text><text text-decoration="none" x="117" fill="#ffffff" font-size="11pt" font-family="lt_regular"  y="136">enter&#160;</text><text text-decoration="none" x="155" fill="#ffffff" font-size="11pt" font-family="lt_regular"  y="136">in-between&#160;</text><text text-decoration="none" x="234" fill="#ffffff" font-size="11pt" font-family="lt_regular"  y="136">text&#160;</text><text text-decoration="none" x="263" fill="#ffffff" font-size="11pt" font-family="lt_regular"  y="136">for&#160;</text><text text-decoration="none" x="286" fill="#ffffff" font-size="11pt" font-family="lt_regular"  y="136">line&#160;</text><text text-decoration="none" x="314" fill="#ffffff" font-size="11pt" font-family="lt_regular"  y="136">break</text><text text-decoration="none" x="350" fill="#ffffff" font-size="11pt" font-family="lt_regular"  y="136"></text><text text-decoration="none" x="0" fill="#ffffff" font-size="11pt" font-family="lt_regular"  y="156">Client&#160;</text><text text-decoration="none" x="43" fill="#ffffff" font-size="11pt" font-family="lt_regular"  y="156">sends&#160;</text><text text-decoration="none" x="83" fill="#ffffff" font-size="11pt" font-family="lt_regular"  y="156">in&#160;</text><text text-decoration="none" x="99" fill="#ffffff" font-size="11pt" font-family="lt_regular"  y="156">information&#160;</text><text text-decoration="none" x="179" fill="#ffffff" font-size="11pt" font-family="lt_regular"  y="156">but&#160;</text><text text-decoration="none" x="204" fill="#ffffff" font-size="11pt" font-family="lt_regular"  y="156">admin&#160;</text><text text-decoration="none" x="247" fill="#ffffff" font-size="11pt" font-family="lt_regular"  y="156">creates&#160;</text><text text-decoration="none" x="297" fill="#ffffff" font-size="11pt" font-family="lt_regular"  y="156">the&#160;</text><text text-decoration="none" x="322" fill="#ffffff" font-size="11pt" font-family="lt_regular"  y="156">auction&#160;</text><text text-decoration="none" x="374" fill="#ffffff" font-size="11pt" font-family="lt_regular"  y="156">and</text><text text-decoration="none" x="397" fill="#ffffff" font-size="11pt" font-family="lt_regular"  y="156"></text><text text-decoration="none" x="0" fill="#ffffff" font-size="11pt" font-family="lt_regular"  y="176">is&#160;</text><text text-decoration="none" x="14" fill="#ffffff" font-size="11pt" font-family="lt_regular"  y="176">the&#160;</text><text text-decoration="none" x="39" fill="#ffffff" font-size="11pt" font-family="lt_regular"  y="176">only&#160;</text><text text-decoration="none" x="72" fill="#ffffff" font-size="11pt" font-family="lt_regular"  y="176">person&#160;</text><text text-decoration="none" x="120" fill="#ffffff" font-size="11pt" font-family="lt_regular"  y="176">who&#160;</text><text text-decoration="none" x="153" fill="#ffffff" font-size="11pt" font-family="lt_regular"  y="176">can&#160;</text><text text-decoration="none" x="179" fill="#ffffff" font-size="11pt" font-family="lt_regular"  y="176">place&#160;</text><text text-decoration="none" x="217" fill="#ffffff" font-size="11pt" font-family="lt_regular"  y="176">the&#160;</text><text text-decoration="none" x="242" fill="#ffffff" font-size="11pt" font-family="lt_regular"  y="176">auction&#160;</text><text text-decoration="none" x="294" fill="#ffffff" font-size="11pt" font-family="lt_regular"  y="176">live/online.</text><text text-decoration="none" x="370" fill="#4b4b4b" font-size="10pt" font-family="noto_regular"  y="176"></text></g></g><g id="dDHyh6eumit"><mask id="745db" x="449" y="386" width="138" height="158" maskUnits="userSpaceOnUse"><rect x="449" y="386" width="138" height="158" fill="white" /><rect x="469.5" y="452" width="96" height="26" fill="black" /></mask><g mask="url(#745db)"><path d="M 463,400 L 462.5769208011934,455.000295844859 Q 462.5,465 472.5,465 L 518,465 L 562.5,465 Q 572.5,465 572.5769208011934,474.999704155141 L 573,530" fill="none" stroke="#9A9A9A" stroke-width="2" stroke-linecap="round" stroke-linejoin="round" stroke-dasharray="3 3"/><path d="M 573,530 L 579.4971751412429,523.0434782608696 M 573,530 L 566.5028248587571,523.0434782608696 Z" fill="rgb(255,255,255)" stroke="#9A9A9A" stroke-width="2" stroke-linecap="round" stroke-linejoin="round"/></g><g transform="translate(472.5, 455)" width="90" height="20"><text text-decoration="none" x="0" fill="rgb(84, 84, 84)" font-size="11pt" font-family="lt_regular"  y="16">Buy()/Search()</text><text text-decoration="none" x="92" fill="#4b4b4b" font-size="10pt" font-family="noto_regular"  y="16"></text></g></g><g id="U6fkkTqVb1m"><mask id="f4707" x="764" y="286" width="100" height="258" maskUnits="userSpaceOnUse"><rect x="764" y="286" width="100" height="258" fill="white" /><rect x="728.1711958383839" y="365.7500856565962" width="99" height="26" fill="black" /></mask><g mask="url(#f4707)"><path d="M 850,300 L 787.5,300 Q 777.5,300 777.5217390790665,309.99997637059414 L 778,530" fill="none" stroke="#9A9A9A" stroke-width="2" stroke-linecap="round" stroke-linejoin="round" stroke-dasharray="3 3"/><path d="M 778,530 L 784.4971751412429,523.0434782608696 M 778,530 L 771.5028248587571,523.0434782608696 Z" fill="rgb(255,255,255)" stroke="#9A9A9A" stroke-width="2" stroke-linecap="round" stroke-linejoin="round"/></g><g transform="translate(731.1711958383839, 368.7500856565962)" width="93" height="20"><text text-decoration="none" x="0" fill="rgb(84, 84, 84)" font-size="11pt" font-family="lt_regular"  y="16">Host_auction()</text><text text-decoration="none" x="94" fill="#4b4b4b" font-size="10pt" font-family="noto_regular"  y="16"></text></g></g><g id="E6gaMCuVqQM"><g transform="translate(1100 700)"><rect x="0" y="0" width="260.00000000000006" height="270" rx="2" ry="2" fill="rgb(65,90,95)" stroke="#0e1415" stroke-width="2" stroke-linecap="round" stroke-linejoin="round" stroke-dasharray="0 0"/><path d="M 0,30 L 260.00000000000006,30 M 0,80 L 260.00000000000006,80" fill="rgb(65,90,95)" stroke="#0e1415" stroke-width="2" stroke-linecap="round" stroke-linejoin="round" stroke-dasharray="0 0"/></g><g transform="translate(1110, 705) rotate(0, 0, 0)" width="42" height="20"><text text-decoration="none" x="0" fill="#ffffff" font-size="11pt" font-family="lt_regular"  y="16">Admin</text><text text-decoration="none" x="42" fill="#4b4b4b" font-size="10pt" font-family="noto_regular"  y="16"></text></g><g transform="translate(1110, 735) rotate(0, 0, 0)" width="115" height="40"><text text-decoration="none" x="0" fill="#ffffff" font-size="11pt" font-family="lt_regular"  y="16">Username&#160;</text><text text-decoration="none" x="69" fill="#ffffff" font-size="11pt" font-family="lt_regular"  y="16">:&#160;</text><text text-decoration="none" x="77" fill="#ffffff" font-size="11pt" font-family="lt_regular"  y="16">String</text><text text-decoration="none" x="115" fill="#ffffff" font-size="11pt" font-family="lt_regular"  y="16"></text><text text-decoration="none" x="0" fill="#ffffff" font-size="11pt" font-family="lt_regular"  y="36">Password:&#160;</text><text text-decoration="none" x="70" fill="#ffffff" font-size="11pt" font-family="lt_regular"  y="36">String</text><text text-decoration="none" x="108" fill="#4b4b4b" font-size="10pt" font-family="noto_regular"  y="36"></text></g><g transform="translate(1110, 785) rotate(0, 0, 0)" width="248" height="180"><text text-decoration="none" x="0" fill="#ffffff" font-size="11pt" font-family="lt_regular"  y="16">Blocking()</text><text text-decoration="none" x="66" fill="#ffffff" font-size="11pt" font-family="lt_regular"  y="16"></text><text text-decoration="none" x="0" fill="#ffffff" font-size="11pt" font-family="lt_regular"  y="36">Notification()</text><text text-decoration="none" x="86" fill="#ffffff" font-size="11pt" font-family="lt_regular"  y="36"></text><text text-decoration="none" x="0" fill="#ffffff" font-size="11pt" font-family="lt_regular"  y="56">Create&#160;</text><text text-decoration="none" x="47" fill="#ffffff" font-size="11pt" font-family="lt_regular"  y="56">the&#160;</text><text text-decoration="none" x="72" fill="#ffffff" font-size="11pt" font-family="lt_regular"  y="56">auction</text><text text-decoration="none" x="120" fill="#ffffff" font-size="11pt" font-family="lt_regular"  y="56"></text><text text-decoration="none" x="0" fill="#ffffff" font-size="11pt" font-family="lt_regular"  y="76">place&#160;</text><text text-decoration="none" x="38" fill="#ffffff" font-size="11pt" font-family="lt_regular"  y="76">auction&#160;</text><text text-decoration="none" x="90" fill="#ffffff" font-size="11pt" font-family="lt_regular"  y="76">live</text><text text-decoration="none" x="114" fill="#ffffff" font-size="11pt" font-family="lt_regular"  y="76"></text><text text-decoration="none" x="0" fill="#ffffff" font-size="11pt" font-family="lt_regular"  y="96">set_bidding_details()</text><text text-decoration="none" x="131" fill="#ffffff" font-size="11pt" font-family="lt_regular"  y="96"></text><text text-decoration="none" x="0" fill="#ffffff" font-size="11pt" font-family="lt_regular"  y="116">Start_bid:&#160;</text><text text-decoration="none" x="65" fill="#ffffff" font-size="11pt" font-family="lt_regular"  y="116">Int</text><text text-decoration="none" x="82" fill="#ffffff" font-size="11pt" font-family="lt_regular"  y="116"></text><text text-decoration="none" x="0" fill="#ffffff" font-size="11pt" font-family="lt_regular"  y="136">Last_bid:&#160;</text><text text-decoration="none" x="61" fill="#ffffff" font-size="11pt" font-family="lt_regular"  y="136">Int</text><text text-decoration="none" x="78" fill="#ffffff" font-size="11pt" font-family="lt_regular"  y="136"></text><text text-decoration="none" x="0" fill="#ffffff" font-size="11pt" font-family="lt_regular"  y="156">Track_of_payment()</text><text text-decoration="none" x="128" fill="#ffffff" font-size="11pt" font-family="lt_regular"  y="156"></text><text text-decoration="none" x="0" fill="#ffffff" font-size="11pt" font-family="lt_regular"  y="176">invoicing&#160;</text><text text-decoration="none" x="64" fill="#ffffff" font-size="11pt" font-family="lt_regular"  y="176">clients&#160;</text><text text-decoration="none" x="110" fill="#ffffff" font-size="11pt" font-family="lt_regular"  y="176">for(administration&#160;</text><text text-decoration="none" x="0" fill="#ffffff" font-size="11pt" font-family="lt_regular"  y="196">fee)</text><text text-decoration="none" x="25" fill="#4b4b4b" font-size="10pt" font-family="noto_regular"  y="196"></text></g></g><g id="3XGL1BjdKLk"><g transform="translate(340.0000000000001 990)"><rect x="0" y="0" width="170.00000000000077" height="120.00000000000007" rx="2" ry="2" fill="rgb(142,179,155)" stroke="#5b7564" stroke-width="2" stroke-linecap="round" stroke-linejoin="round" stroke-dasharray="0 0"/><path d="M 0,30 L 170.00000000000077,30 M 0,80 L 170.00000000000077,80" fill="rgb(142,179,155)" stroke="#5b7564" stroke-width="2" stroke-linecap="round" stroke-linejoin="round" stroke-dasharray="0 0"/></g><g transform="translate(350.0000000000001, 995) rotate(0, 0, 0)" width="21" height="20"><text text-decoration="none" x="0" fill="#ffffff" font-size="11pt" font-family="lt_regular"  y="16">Bid</text><text text-decoration="none" x="22" fill="#4b4b4b" font-size="10pt" font-family="noto_regular"  y="16"></text></g><g transform="translate(350.0000000000001, 1025) rotate(0, 0, 0)" width="115" height="40"><text text-decoration="none" x="0" fill="#ffffff" font-size="11pt" font-family="lt_regular"  y="16">Current_bid:&#160;</text><text text-decoration="none" x="84" fill="#ffffff" font-size="11pt" font-family="lt_regular"  y="16">Int</text><text text-decoration="none" x="101" fill="#ffffff" font-size="11pt" font-family="lt_regular"  y="16"></text><text text-decoration="none" x="0" fill="#ffffff" font-size="11pt" font-family="lt_regular"  y="36">Maximum_bid:&#160;</text><text text-decoration="none" x="0" fill="#ffffff" font-size="11pt" font-family="lt_regular"  y="56">Int</text><text text-decoration="none" x="17" fill="#4b4b4b" font-size="10pt" font-family="noto_regular"  y="56"></text></g><g transform="translate(350.0000000000001, 1075) rotate(0, 0, 0)" width="145" height="20"><text text-decoration="none" x="0" fill="#ffffff" font-size="11pt" font-family="lt_regular"  y="16">Sort_bidding_amount()</text><text text-decoration="none" x="146" fill="#4b4b4b" font-size="10pt" font-family="noto_regular"  y="16"></text></g></g><g id="4dIODOOacCr"><g transform="translate(850 1000)"><rect x="0" y="0" width="150" height="100" rx="2" ry="2" fill="rgb(142,179,155)" stroke="#5b7564" stroke-width="2" stroke-linecap="round" stroke-linejoin="round" stroke-dasharray="0 0"/><path d="M 0,30 L 150,30" fill="rgb(142,179,155)" stroke="#5b7564" stroke-width="2" stroke-linecap="round" stroke-linejoin="round" stroke-dasharray="0 0"/></g><g transform="translate(897, 1005) rotate(0, 28, 0)" width="56" height="20"><text text-decoration="none" x="0" fill="#ffffff" font-size="11pt" font-family="lt_regular"  y="16">Payment</text><text text-decoration="none" x="57" fill="#4b4b4b" font-size="10pt" font-family="noto_regular"  y="16"></text></g><g transform="translate(860, 1035) rotate(0, 0, 0)" width="76" height="20"><text text-decoration="none" x="0" fill="#ffffff" font-size="11pt" font-family="lt_regular"  y="16">Amount:&#160;</text><text text-decoration="none" x="0" fill="#ffffff" font-size="11pt" font-family="lt_regular"  y="36">Int</text><text text-decoration="none" x="17" fill="#4b4b4b" font-size="10pt" font-family="noto_regular"  y="36"></text></g></g><g id="XFN5O8V5X2y"><mask id="9d343" x="496" y="1036" width="368" height="28" maskUnits="userSpaceOnUse"><rect x="496" y="1036" width="368" height="28" fill="white" /><rect x="615.5" y="1037" width="129" height="26" fill="black" /></mask><g mask="url(#9d343)"><path d="M 510,1050 L 850,1050" fill="none" stroke="#9A9A9A" stroke-width="2" stroke-linecap="round" stroke-linejoin="round" stroke-dasharray="3 3"/><path d="M 850,1050 L 843.0434782608696,1043.502824858757 M 850,1050 L 843.0434782608696,1056.497175141243 Z" fill="rgb(255,255,255)" stroke="#9A9A9A" stroke-width="2" stroke-linecap="round" stroke-linejoin="round"/></g><g transform="translate(618.5, 1040)" width="123" height="20"><text text-decoration="none" x="0.5" fill="rgb(84, 84, 84)" font-size="11pt" font-family="lt_regular"  y="16">Max&#160;</text><text text-decoration="none" x="32.5" fill="rgb(84, 84, 84)" font-size="11pt" font-family="lt_regular"  y="16">bid&#160;</text><text text-decoration="none" x="56.5" fill="rgb(84, 84, 84)" font-size="11pt" font-family="lt_regular"  y="16">as&#160;</text><text text-decoration="none" x="73.5" fill="rgb(84, 84, 84)" font-size="11pt" font-family="lt_regular"  y="16">amount</text><text text-decoration="none" x="122.5" fill="#4b4b4b" font-size="10pt" font-family="noto_regular"  y="16"></text></g></g><g id="jIhoAhHbx2O"><mask id="6b0cc" x="411" y="386" width="28" height="618" maskUnits="userSpaceOnUse"><rect x="411" y="386" width="28" height="618" fill="white" /><rect x="394.0000000000002" y="682" width="62" height="26" fill="black" /></mask><g mask="url(#6b0cc)"><path d="M 425,400 L 425,685 Q 425,685 425,695 Q 425.0000000000005,704.9999999999995 425.0000000000005,705 L 425,990" fill="none" stroke="#9A9A9A" stroke-width="2" stroke-linecap="round" stroke-linejoin="round" stroke-dasharray="3 3"/><path d="M 425,990 L 431.49717514124296,983.0434782608696 M 425,990 L 418.50282485875704,983.0434782608696 Z" fill="rgb(255,255,255)" stroke="#9A9A9A" stroke-width="2" stroke-linecap="round" stroke-linejoin="round"/></g><g transform="translate(397.0000000000002, 685)" width="56" height="20"><text text-decoration="none" x="0" fill="rgb(84, 84, 84)" font-size="11pt" font-family="lt_regular"  y="16">Bidding()</text><text text-decoration="none" x="58" fill="#4b4b4b" font-size="10pt" font-family="noto_regular"  y="16"></text></g></g><g id="brdDNLgKtjo"><mask id="e5fa2" x="949" y="386" width="28" height="628" maskUnits="userSpaceOnUse"><rect x="949" y="386" width="28" height="628" fill="white" /><rect x="949" y="417" width="28" height="26" fill="black" /><rect x="948" y="957" width="30" height="26" fill="black" /></mask><g mask="url(#e5fa2)"><path d="M 963,400 L 963,1000" fill="none" stroke="#9A9A9A" stroke-width="2" stroke-linecap="round" stroke-linejoin="round"/></g><g transform="translate(952, 420)" width="22" height="20"><text text-decoration="none" x="0" fill="#4b4b4b" font-size="11pt" font-family="lt_regular"  y="16">1..*</text><text text-decoration="none" x="23" fill="#4b4b4b" font-size="10pt" font-family="noto_regular"  y="16"></text></g><g transform="translate(951, 960)" width="24" height="20"><text text-decoration="none" x="0" fill="#4b4b4b" font-size="11pt" font-family="lt_regular"  y="16">0..1</text><text text-decoration="none" x="26" fill="#4b4b4b" font-size="10pt" font-family="noto_regular"  y="16"></text></g></g><g id="l6DxhurWXCJ"><mask id="34a40" x="454" y="386" width="485" height="618" maskUnits="userSpaceOnUse"><rect x="454" y="386" width="485" height="618" fill="white" /><rect x="732.8436314066016" y="787.158070167965" width="138" height="26" fill="black" /></mask><g mask="url(#34a40)"><path d="M 925,400 L 925,790.34375 Q 925,800.34375 915.0000113654067,800.3286732627494 L 697,800 L 477.9999887336375,800.3287390998813 Q 468,800.34375 468,810.34375 L 468,990" fill="none" stroke="#9A9A9A" stroke-width="2" stroke-linecap="round" stroke-linejoin="round" stroke-dasharray="3 3"/><path d="M 468,990 L 474.49717514124296,983.0434782608696 M 468,990 L 461.50282485875704,983.0434782608696 Z" fill="rgb(255,255,255)" stroke="#9A9A9A" stroke-width="2" stroke-linecap="round" stroke-linejoin="round"/></g><g transform="translate(735.8436314066016, 790.158070167965)" width="132" height="20"><text text-decoration="none" x="0" fill="rgb(84, 84, 84)" font-size="11pt" font-family="lt_regular"  y="16">Set_Bidding_details()</text><text text-decoration="none" x="135" fill="#4b4b4b" font-size="10pt" font-family="noto_regular"  y="16"></text></g></g><g id="BoH8vCRVcvI"><g transform="translate(959.9999999999998 500.00000000000006)"><rect x="0" y="0" width="149.9999999999999" height="40" fill="rgba(255,255,255,0.01)" stroke="rgba(255,255,255,0.01)"/></g><g transform="translate(969.9999999999998, 510.00000000000006) rotate(0, 0, 0)" width="125" height="20"><text text-decoration="none" x="0" fill="#4b4b4b" font-size="11pt" font-family="lt_regular"  y="16">Track_of_payment()</text><text text-decoration="none" x="128" fill="#4b4b4b" font-size="10pt" font-family="noto_regular"  y="16"></text></g></g><g id="OmMXMUeqLOt"><mask id="93a3d" x="285" y="336" width="895" height="829" maskUnits="userSpaceOnUse"><rect x="285" y="336" width="895" height="829" fill="white" /><rect x="257.80901699437493" y="1138" width="280" height="26" fill="black" /></mask><g mask="url(#93a3d)"><path d="M 1165,970 Q 1165,970.5 1166,971 Q 1166,980 1166,980.5 L 1166,1061 L 1166,1141 Q 1166,1151 1156,1151 L 733,1151 L 309,1151 Q 299,1151 299,1141 L 299,751 L 299,360 Q 299,350 309,350 L 350,350" fill="none" stroke="#9A9A9A" stroke-width="2" stroke-linecap="round" stroke-linejoin="round" stroke-dasharray="3 3"/><path d="M 350,350 L 343.04347826086956,343.50282485875704 M 350,350 L 343.04347826086956,356.49717514124296 Z" fill="rgb(255,255,255)" stroke="#9A9A9A" stroke-width="2" stroke-linecap="round" stroke-linejoin="round"/></g><g transform="translate(260.80901699437493, 1141)" width="274" height="20"><text text-decoration="none" x="80.5" fill="rgb(84, 84, 84)" font-size="11pt" font-family="lt_regular"  y="16">Notification()&#160;</text><text text-decoration="none" x="170.5" fill="rgb(84, 84, 84)" font-size="11pt" font-family="lt_regular"  y="16">and&#160;</text><text text-decoration="none" x="57" fill="rgb(84, 84, 84)" font-size="11pt" font-family="lt_regular"  y="36">ownership_of_products()</text><text text-decoration="none" x="217" fill="#4b4b4b" font-size="10pt" font-family="noto_regular"  y="36"></text></g></g><g id="wuJvPXzmiRP"><mask id="389ba" x="866" y="626" width="313" height="88" maskUnits="userSpaceOnUse"><rect x="866" y="626" width="313" height="88" fill="white" /><rect x="1033" y="627" width="39" height="26" fill="black" /></mask><g mask="url(#389ba)"><path d="M 1165,700 L 1165,650 Q 1165,640 1155,640 L 880,640" fill="none" stroke="#9A9A9A" stroke-width="2" stroke-linecap="round" stroke-linejoin="round" stroke-dasharray="3 3"/><path d="M 880,640 L 886.9565217391304,646.4971751412429 M 880,640 L 886.9565217391304,633.5028248587571 Z" fill="rgb(255,255,255)" stroke="#9A9A9A" stroke-width="2" stroke-linecap="round" stroke-linejoin="round"/></g><g transform="translate(1036, 630)" width="33" height="20"><text text-decoration="none" x="0" fill="rgb(84, 84, 84)" font-size="11pt" font-family="lt_regular"  y="16">View</text><text text-decoration="none" x="34" fill="#4b4b4b" font-size="10pt" font-family="noto_regular"  y="16"></text></g></g><g id="XMkCcf8laP2"><mask id="aea4a" x="736" y="86" width="573" height="628" maskUnits="userSpaceOnUse"><rect x="736" y="86" width="573" height="628" fill="white" /><rect x="1260.5" y="114.5" width="69" height="26" fill="black" /></mask><g mask="url(#aea4a)"><path d="M 1295,700 L 1295,110 Q 1295,100 1285,100 L 750,100" fill="none" stroke="#9A9A9A" stroke-width="2" stroke-linecap="round" stroke-linejoin="round" stroke-dasharray="3 3"/><path d="M 750,100 L 756.9565217391304,106.49717514124293 M 750,100 L 756.9565217391304,93.50282485875707 Z" fill="rgb(255,255,255)" stroke="#9A9A9A" stroke-width="2" stroke-linecap="round" stroke-linejoin="round"/></g><g transform="translate(1263.5, 117.5)" width="63" height="20"><text text-decoration="none" x="0" fill="rgb(84, 84, 84)" font-size="11pt" font-family="lt_regular"  y="16">Blocking()</text><text text-decoration="none" x="66" fill="#4b4b4b" font-size="10pt" font-family="noto_regular"  y="16"></text></g></g><g id="W5QwMXt0YmB"><mask id="164b3" x="986" y="286" width="258" height="428" maskUnits="userSpaceOnUse"><rect x="986" y="286" width="258" height="428" fill="white" /><rect x="1185" y="372" width="90" height="26" fill="black" /></mask><g mask="url(#164b3)"><path d="M 1230,700 L 1230,310 Q 1230,300 1220,300 L 1000,300" fill="none" stroke="#9A9A9A" stroke-width="2" stroke-linecap="round" stroke-linejoin="round" stroke-dasharray="3 3"/><path d="M 1000,300 L 1006.9565217391304,306.49717514124296 M 1000,300 L 1006.9565217391304,293.50282485875704 Z" fill="rgb(255,255,255)" stroke="#9A9A9A" stroke-width="2" stroke-linecap="round" stroke-linejoin="round"/></g><g transform="translate(1188, 375)" width="84" height="20"><text text-decoration="none" x="0" fill="rgb(84, 84, 84)" font-size="11pt" font-family="lt_regular"  y="16">Notification()</text><text text-decoration="none" x="86" fill="#4b4b4b" font-size="10pt" font-family="noto_regular"  y="16"></text></g></g></svg>